<svg xmlns="http://www.w3.org/2000/svg" viewBox="0 0 480 480"><g fill="#2276bb"><path d="M24 208l41.28-20.168L56 160H24v48zM24 272l41.28 20.168L56 320H24v-48z"/></g><path d="M250.112 144H320c83.944 0 152 42.984 152 96s-68.056 96-152 96h-69.888A431.403 431.403 0 0 1 24 272v-64a431.403 431.403 0 0 1 226.112-64z" fill="#d1e3ee"/><g fill="#ffbf41"><path d="M248 328h16v48h-16v-48zM296 328h16v48h-16v-48z"/></g><path d="M307.448 416H252.56c-11.351.004-20.556-9.193-20.56-20.544V368h96v27.448c0 11.351-9.201 20.552-20.552 20.552z" fill="#ffd884"/><g fill="#ffbf41"><path d="M288 384h16v16h-16v-16zM256 384h16v16h-16v-16z"/></g><path d="M250.112 144H320c83.944 0 152 42.984 152 96s-68.056 96-152 96h-69.888A431.403 431.403 0 0 1 24 272v-64a431.403 431.403 0 0 1 226.112-64z" fill="#d1e3ee"/><path d="M320 336h-69.888A431.403 431.403 0 0 1 24 272v-32h448c0 53.016-68.056 96-152 96z" fill="#a9bfd1"/><g fill="#2276bb"><path d="M72 256h360v16H72v-16zM144 288h248v16H144v-16z"/></g><g fill="#12bbc3"><path d="M288 72h1.472A23.7 23.7 0 0 1 288 64c-.033-13.219 10.658-23.962 23.877-23.995a23.935 23.935 0 0 1 17.675 7.731c4.44-12.358 18.057-18.776 30.415-14.336a23.795 23.795 0 0 1 6.465 3.536c10.381-14.21 30.316-17.313 44.526-6.932 13.263 9.689 16.987 27.873 8.602 41.996H432c8.837 0 16 7.163 16 16s-7.163 16-16 16H288c-8.837 0-16-7.163-16-16s7.163-16 16-16zM64 424h8c0-13.255 10.745-24 24-24s24 10.745 24 24h8c8.837 0 16 7.163 16 16s-7.163 16-16 16H64c-8.837 0-16-7.163-16-16s7.163-16 16-16z"/></g><path d="M0 232h72v16H0v-16z" fill="#2276bb"/><path d="M16 232H0v16h16v72a8 8 0 0 0 8 8h32a8 8 0 0 0 7.592-5.472l5.816-17.456A439.054 439.054 0 0 0 248 344v16h-16a8 8 0 0 0-8 8v27.448c.022 15.76 12.792 28.53 28.552 28.552h54.896c15.76-.022 28.53-12.792 28.552-28.552V368a8 8 0 0 0-8-8h-16v-16h8c88.224 0 160-46.656 160-104s-71.776-104-160-104h-69.888a439.073 439.073 0 0 0-180.704 38.928l-5.816-17.456A8 8 0 0 0 56 152H24a8 8 0 0 0-8 8v72zm38.848-50.168c-7.72 3.832-15.344 7.848-22.848 12.144V168h18.232l4.616 13.832zM240 376h80v19.448c-.009 6.929-5.623 12.543-12.552 12.552h-54.896c-6.929-.009-12.543-5.623-12.552-12.552V376zm24-16v-16h32v16h-32zM32 312v-25.976c7.504 4.296 15.128 8.312 22.848 12.144L50.232 312H32zm0-64h40v-16H32v-19.504A423.207 423.207 0 0 1 250.112 152H320c79.4 0 144 39.48 144 88s-64.6 88-144 88h-69.888A423.096 423.096 0 0 1 32 267.496V248z"/><path d="M288 384h16v16h-16v-16zM256 384h16v16h-16v-16zM72 256h360v16H72v-16zM144 288h248v16H144v-16zM432 64h-.8c.543-2.632.812-5.313.8-8-.026-22.08-17.92-39.974-40-40a39.448 39.448 0 0 0-27.2 10.744A31.274 31.274 0 0 0 352 24a32 32 0 0 0-24.8 11.872A31.562 31.562 0 0 0 312 32c-17.673 0-32 14.327-32 32v1.36c-12.504 4.399-19.074 18.101-14.676 30.604A24 24 0 0 0 288 112h144c13.255 0 24-10.745 24-24s-10.745-24-24-24zm0 16a8 8 0 0 1 0 16H288a8 8 0 0 1 0-16h1.472a8 8 0 0 0 7.536-10.672c-3.067-8.155 1.057-17.253 9.213-20.32A15.789 15.789 0 0 1 312 48a15.794 15.794 0 0 1 11.68 5.168 8 8 0 0 0 13.376-2.664A16 16 0 0 1 352 40a15.847 15.847 0 0 1 9.6 3.312 8 8 0 0 0 11.2-1.6A23.759 23.759 0 0 1 392 32c13.255 0 24 10.745 24 24a23.568 23.568 0 0 1-3.352 12 8 8 0 0 0 6.912 12H432zM40 440c0 13.255 10.745 24 24 24h64c13.255 0 24-10.745 24-24s-10.745-24-24-24h-1.008c-4.401-17.116-21.844-27.424-38.96-23.024A32.001 32.001 0 0 0 65.008 416H64c-13.255 0-24 10.745-24 24zm16 0a8 8 0 0 1 8-8h8a8 8 0 0 0 8-8c0-8.837 7.163-16 16-16s16 7.163 16 16a8 8 0 0 0 8 8h8a8 8 0 0 1 0 16H64a8 8 0 0 1-8-8z"/></svg>